<?xml version="1.0" standalone="no"?>
<!DOCTYPE svg PUBLIC "-//W3C//DTD SVG 20010904//EN"
 "http://www.w3.org/TR/2001/REC-SVG-20010904/DTD/svg10.dtd">
<svg version="1.0" xmlns="http://www.w3.org/2000/svg"
 width="498.000000pt" height="498.000000pt" viewBox="0 0 498.000000 498.000000"
 preserveAspectRatio="xMidYMid meet">
<metadata>
Created by potrace 1.14, written by Peter Selinger 2001-2017
</metadata>
<g transform="translate(0.000000,498.000000) scale(0.100000,-0.100000)"
fill="#000000" stroke="none">
<path d="M2625 4969 c-34 -11 -270 -78 -299 -84 -10 -2 -33 -9 -51 -15 -18 -6
-41 -12 -51 -15 -10 -2 -80 -20 -154 -40 -242 -66 -315 -86 -330 -90 -8 -2
-89 -24 -180 -50 -91 -25 -223 -61 -295 -81 -71 -19 -140 -38 -152 -42 -24 -8
-86 58 867 -912 577 -587 661 -673 657 -676 -2 -3 -98 -10 -267 -19 -52 -3
-124 -8 -160 -10 -36 -3 -112 -7 -170 -10 -58 -3 -139 -8 -180 -11 -41 -3
-109 -7 -150 -9 -41 -2 -113 -6 -160 -9 -47 -3 -127 -8 -178 -11 l-94 -6 -251
-212 c-139 -116 -254 -214 -257 -217 -3 -3 -59 -50 -125 -105 -66 -55 -131
-110 -145 -121 -14 -12 -38 -32 -53 -46 l-29 -23 348 -505 c191 -278 370 -539
398 -580 28 -41 54 -76 58 -78 5 -2 8 -10 8 -17 0 -7 4 -15 8 -17 4 -1 57 -75
117 -163 60 -88 137 -200 172 -249 34 -49 64 -93 65 -98 3 -8 98 -34 189 -52
13 -2 62 -13 109 -25 47 -11 97 -22 110 -25 14 -2 93 -20 175 -39 83 -19 164
-37 180 -40 17 -3 140 -31 275 -61 135 -31 254 -58 265 -60 11 -3 144 -32 295
-66 353 -80 351 -80 343 -66 -7 10 -614 846 -728 1001 -28 39 -107 147 -175
240 -68 94 -156 213 -195 266 -286 392 -345 475 -345 484 0 10 26 11 105 1 70
-8 165 -18 200 -21 17 -1 66 -5 110 -9 44 -4 91 -9 105 -12 14 -2 57 -6 95 -9
39 -3 86 -7 105 -10 19 -2 64 -7 100 -10 36 -3 81 -7 100 -10 19 -2 64 -7 100
-10 36 -3 106 -10 155 -15 50 -5 119 -12 155 -15 36 -4 79 -8 95 -10 17 -2 66
-6 110 -10 44 -4 83 -9 86 -11 3 -2 129 173 280 389 150 216 342 490 426 610
l152 218 -683 687 c-376 378 -804 807 -950 955 -146 147 -269 267 -273 266 -5
0 -21 -5 -38 -10z"/>
</g>
</svg>
